<svg width="24" height="24" viewBox="0 0 24 24" fill="none" xmlns="http://www.w3.org/2000/svg">
<path d="M21.0907 1.34595H2.68194C1.80042 1.34595 1.08594 2.03859 1.08594 2.89347V21.3977C1.08594 22.2526 1.80066 22.9459 2.68194 22.9459H21.0907C21.9722 22.9459 22.6857 22.2523 22.6857 21.3977V2.89347C22.6857 2.03883 21.9722 1.34595 21.0907 1.34595ZM7.63434 19.4266H4.37082V9.67443H7.63434V19.4266ZM6.00282 8.34219H5.98098C4.88658 8.34219 4.17714 7.59363 4.17714 6.65667C4.17714 5.70075 4.90746 4.97259 6.02346 4.97259C7.1397 4.97259 7.82634 5.70051 7.84794 6.65667C7.84794 7.59387 7.13994 8.34219 6.00282 8.34219ZM19.3987 19.4266H16.1361V14.209C16.1361 12.8976 15.6633 12.0031 14.4835 12.0031C13.5808 12.0031 13.0451 12.6067 12.8099 13.1892C12.7226 13.3975 12.7012 13.6884 12.7012 13.9793V19.4263H9.43914C9.43914 19.4263 9.48186 10.5888 9.43914 9.67419H12.7015V11.0568C13.1347 10.3925 13.9084 9.44475 15.6412 9.44475C17.7885 9.44475 19.3987 10.8377 19.3987 13.8346V19.4266ZM12.6803 11.0878C12.6861 11.0787 12.6938 11.0676 12.7015 11.0571V11.0878H12.6803Z" fill="#313131"/>
</svg>
